%TF.GenerationSoftware,KiCad,Pcbnew,7.0.8*%
%TF.CreationDate,2023-11-07T11:30:32+01:00*%
%TF.ProjectId,Schield,53636869-656c-4642-9e6b-696361645f70,rev?*%
%TF.SameCoordinates,Original*%
%TF.FileFunction,Legend,Top*%
%TF.FilePolarity,Positive*%
%FSLAX46Y46*%
G04 Gerber Fmt 4.6, Leading zero omitted, Abs format (unit mm)*
G04 Created by KiCad (PCBNEW 7.0.8) date 2023-11-07 11:30:32*
%MOMM*%
%LPD*%
G01*
G04 APERTURE LIST*
%ADD10C,0.150000*%
%ADD11C,0.120000*%
G04 APERTURE END LIST*
D10*
X263450819Y-131498666D02*
X263450819Y-130832000D01*
X263450819Y-130832000D02*
X264450819Y-131498666D01*
X264450819Y-131498666D02*
X264450819Y-130832000D01*
X264546057Y-130689143D02*
X264546057Y-129927238D01*
X264165104Y-129736761D02*
X264165104Y-129260571D01*
X264450819Y-129831999D02*
X263450819Y-129498666D01*
X263450819Y-129498666D02*
X264450819Y-129165333D01*
X264450819Y-128927237D02*
X263784152Y-128403428D01*
X263784152Y-128927237D02*
X264450819Y-128403428D01*
X264450819Y-128022475D02*
X263784152Y-128022475D01*
X263450819Y-128022475D02*
X263498438Y-128070094D01*
X263498438Y-128070094D02*
X263546057Y-128022475D01*
X263546057Y-128022475D02*
X263498438Y-127974856D01*
X263498438Y-127974856D02*
X263450819Y-128022475D01*
X263450819Y-128022475D02*
X263546057Y-128022475D01*
X264403200Y-127593904D02*
X264450819Y-127498666D01*
X264450819Y-127498666D02*
X264450819Y-127308190D01*
X264450819Y-127308190D02*
X264403200Y-127212952D01*
X264403200Y-127212952D02*
X264307961Y-127165333D01*
X264307961Y-127165333D02*
X264260342Y-127165333D01*
X264260342Y-127165333D02*
X264165104Y-127212952D01*
X264165104Y-127212952D02*
X264117485Y-127308190D01*
X264117485Y-127308190D02*
X264117485Y-127451047D01*
X264117485Y-127451047D02*
X264069866Y-127546285D01*
X264069866Y-127546285D02*
X263974628Y-127593904D01*
X263974628Y-127593904D02*
X263927009Y-127593904D01*
X263927009Y-127593904D02*
X263831771Y-127546285D01*
X263831771Y-127546285D02*
X263784152Y-127451047D01*
X263784152Y-127451047D02*
X263784152Y-127308190D01*
X263784152Y-127308190D02*
X263831771Y-127212952D01*
X264450819Y-126212952D02*
X264450819Y-126784380D01*
X264450819Y-126498666D02*
X263450819Y-126498666D01*
X263450819Y-126498666D02*
X263593676Y-126593904D01*
X263593676Y-126593904D02*
X263688914Y-126689142D01*
X263688914Y-126689142D02*
X263736533Y-126784380D01*
X199731333Y-138196819D02*
X199398000Y-137720628D01*
X199159905Y-138196819D02*
X199159905Y-137196819D01*
X199159905Y-137196819D02*
X199540857Y-137196819D01*
X199540857Y-137196819D02*
X199636095Y-137244438D01*
X199636095Y-137244438D02*
X199683714Y-137292057D01*
X199683714Y-137292057D02*
X199731333Y-137387295D01*
X199731333Y-137387295D02*
X199731333Y-137530152D01*
X199731333Y-137530152D02*
X199683714Y-137625390D01*
X199683714Y-137625390D02*
X199636095Y-137673009D01*
X199636095Y-137673009D02*
X199540857Y-137720628D01*
X199540857Y-137720628D02*
X199159905Y-137720628D01*
X200683714Y-138196819D02*
X200112286Y-138196819D01*
X200398000Y-138196819D02*
X200398000Y-137196819D01*
X200398000Y-137196819D02*
X200302762Y-137339676D01*
X200302762Y-137339676D02*
X200207524Y-137434914D01*
X200207524Y-137434914D02*
X200112286Y-137482533D01*
X232308666Y-94376628D02*
X232308666Y-94852819D01*
X231975333Y-93852819D02*
X232308666Y-94376628D01*
X232308666Y-94376628D02*
X232641999Y-93852819D01*
X232737238Y-94948057D02*
X233499142Y-94948057D01*
X233689619Y-94567104D02*
X234165809Y-94567104D01*
X233594381Y-94852819D02*
X233927714Y-93852819D01*
X233927714Y-93852819D02*
X234261047Y-94852819D01*
X234499143Y-94852819D02*
X235022952Y-94186152D01*
X234499143Y-94186152D02*
X235022952Y-94852819D01*
X235403905Y-94852819D02*
X235403905Y-94186152D01*
X235403905Y-93852819D02*
X235356286Y-93900438D01*
X235356286Y-93900438D02*
X235403905Y-93948057D01*
X235403905Y-93948057D02*
X235451524Y-93900438D01*
X235451524Y-93900438D02*
X235403905Y-93852819D01*
X235403905Y-93852819D02*
X235403905Y-93948057D01*
X235832476Y-94805200D02*
X235927714Y-94852819D01*
X235927714Y-94852819D02*
X236118190Y-94852819D01*
X236118190Y-94852819D02*
X236213428Y-94805200D01*
X236213428Y-94805200D02*
X236261047Y-94709961D01*
X236261047Y-94709961D02*
X236261047Y-94662342D01*
X236261047Y-94662342D02*
X236213428Y-94567104D01*
X236213428Y-94567104D02*
X236118190Y-94519485D01*
X236118190Y-94519485D02*
X235975333Y-94519485D01*
X235975333Y-94519485D02*
X235880095Y-94471866D01*
X235880095Y-94471866D02*
X235832476Y-94376628D01*
X235832476Y-94376628D02*
X235832476Y-94329009D01*
X235832476Y-94329009D02*
X235880095Y-94233771D01*
X235880095Y-94233771D02*
X235975333Y-94186152D01*
X235975333Y-94186152D02*
X236118190Y-94186152D01*
X236118190Y-94186152D02*
X236213428Y-94233771D01*
X237213428Y-94852819D02*
X236642000Y-94852819D01*
X236927714Y-94852819D02*
X236927714Y-93852819D01*
X236927714Y-93852819D02*
X236832476Y-93995676D01*
X236832476Y-93995676D02*
X236737238Y-94090914D01*
X236737238Y-94090914D02*
X236642000Y-94138533D01*
X218781333Y-95778819D02*
X218448000Y-95302628D01*
X218209905Y-95778819D02*
X218209905Y-94778819D01*
X218209905Y-94778819D02*
X218590857Y-94778819D01*
X218590857Y-94778819D02*
X218686095Y-94826438D01*
X218686095Y-94826438D02*
X218733714Y-94874057D01*
X218733714Y-94874057D02*
X218781333Y-94969295D01*
X218781333Y-94969295D02*
X218781333Y-95112152D01*
X218781333Y-95112152D02*
X218733714Y-95207390D01*
X218733714Y-95207390D02*
X218686095Y-95255009D01*
X218686095Y-95255009D02*
X218590857Y-95302628D01*
X218590857Y-95302628D02*
X218209905Y-95302628D01*
X219162286Y-94874057D02*
X219209905Y-94826438D01*
X219209905Y-94826438D02*
X219305143Y-94778819D01*
X219305143Y-94778819D02*
X219543238Y-94778819D01*
X219543238Y-94778819D02*
X219638476Y-94826438D01*
X219638476Y-94826438D02*
X219686095Y-94874057D01*
X219686095Y-94874057D02*
X219733714Y-94969295D01*
X219733714Y-94969295D02*
X219733714Y-95064533D01*
X219733714Y-95064533D02*
X219686095Y-95207390D01*
X219686095Y-95207390D02*
X219114667Y-95778819D01*
X219114667Y-95778819D02*
X219733714Y-95778819D01*
X225867618Y-158120152D02*
X225867618Y-158929676D01*
X225867618Y-158929676D02*
X225819999Y-159024914D01*
X225819999Y-159024914D02*
X225772380Y-159072533D01*
X225772380Y-159072533D02*
X225677142Y-159120152D01*
X225677142Y-159120152D02*
X225534285Y-159120152D01*
X225534285Y-159120152D02*
X225439047Y-159072533D01*
X225867618Y-158739200D02*
X225772380Y-158786819D01*
X225772380Y-158786819D02*
X225581904Y-158786819D01*
X225581904Y-158786819D02*
X225486666Y-158739200D01*
X225486666Y-158739200D02*
X225439047Y-158691580D01*
X225439047Y-158691580D02*
X225391428Y-158596342D01*
X225391428Y-158596342D02*
X225391428Y-158310628D01*
X225391428Y-158310628D02*
X225439047Y-158215390D01*
X225439047Y-158215390D02*
X225486666Y-158167771D01*
X225486666Y-158167771D02*
X225581904Y-158120152D01*
X225581904Y-158120152D02*
X225772380Y-158120152D01*
X225772380Y-158120152D02*
X225867618Y-158167771D01*
X226343809Y-158786819D02*
X226343809Y-158120152D01*
X226343809Y-158310628D02*
X226391428Y-158215390D01*
X226391428Y-158215390D02*
X226439047Y-158167771D01*
X226439047Y-158167771D02*
X226534285Y-158120152D01*
X226534285Y-158120152D02*
X226629523Y-158120152D01*
X226962857Y-158786819D02*
X226962857Y-158120152D01*
X226962857Y-157786819D02*
X226915238Y-157834438D01*
X226915238Y-157834438D02*
X226962857Y-157882057D01*
X226962857Y-157882057D02*
X227010476Y-157834438D01*
X227010476Y-157834438D02*
X226962857Y-157786819D01*
X226962857Y-157786819D02*
X226962857Y-157882057D01*
X227439047Y-158120152D02*
X227439047Y-159120152D01*
X227439047Y-158167771D02*
X227534285Y-158120152D01*
X227534285Y-158120152D02*
X227724761Y-158120152D01*
X227724761Y-158120152D02*
X227819999Y-158167771D01*
X227819999Y-158167771D02*
X227867618Y-158215390D01*
X227867618Y-158215390D02*
X227915237Y-158310628D01*
X227915237Y-158310628D02*
X227915237Y-158596342D01*
X227915237Y-158596342D02*
X227867618Y-158691580D01*
X227867618Y-158691580D02*
X227819999Y-158739200D01*
X227819999Y-158739200D02*
X227724761Y-158786819D01*
X227724761Y-158786819D02*
X227534285Y-158786819D01*
X227534285Y-158786819D02*
X227439047Y-158739200D01*
X228343809Y-158120152D02*
X228343809Y-159120152D01*
X228343809Y-158167771D02*
X228439047Y-158120152D01*
X228439047Y-158120152D02*
X228629523Y-158120152D01*
X228629523Y-158120152D02*
X228724761Y-158167771D01*
X228724761Y-158167771D02*
X228772380Y-158215390D01*
X228772380Y-158215390D02*
X228819999Y-158310628D01*
X228819999Y-158310628D02*
X228819999Y-158596342D01*
X228819999Y-158596342D02*
X228772380Y-158691580D01*
X228772380Y-158691580D02*
X228724761Y-158739200D01*
X228724761Y-158739200D02*
X228629523Y-158786819D01*
X228629523Y-158786819D02*
X228439047Y-158786819D01*
X228439047Y-158786819D02*
X228343809Y-158739200D01*
X229629523Y-158739200D02*
X229534285Y-158786819D01*
X229534285Y-158786819D02*
X229343809Y-158786819D01*
X229343809Y-158786819D02*
X229248571Y-158739200D01*
X229248571Y-158739200D02*
X229200952Y-158643961D01*
X229200952Y-158643961D02*
X229200952Y-158263009D01*
X229200952Y-158263009D02*
X229248571Y-158167771D01*
X229248571Y-158167771D02*
X229343809Y-158120152D01*
X229343809Y-158120152D02*
X229534285Y-158120152D01*
X229534285Y-158120152D02*
X229629523Y-158167771D01*
X229629523Y-158167771D02*
X229677142Y-158263009D01*
X229677142Y-158263009D02*
X229677142Y-158358247D01*
X229677142Y-158358247D02*
X229200952Y-158453485D01*
X230105714Y-158786819D02*
X230105714Y-158120152D01*
X230105714Y-158310628D02*
X230153333Y-158215390D01*
X230153333Y-158215390D02*
X230200952Y-158167771D01*
X230200952Y-158167771D02*
X230296190Y-158120152D01*
X230296190Y-158120152D02*
X230391428Y-158120152D01*
X231248571Y-158786819D02*
X230677143Y-158786819D01*
X230962857Y-158786819D02*
X230962857Y-157786819D01*
X230962857Y-157786819D02*
X230867619Y-157929676D01*
X230867619Y-157929676D02*
X230772381Y-158024914D01*
X230772381Y-158024914D02*
X230677143Y-158072533D01*
X172585714Y-159802819D02*
X172585714Y-158802819D01*
X173061904Y-159136152D02*
X173061904Y-159802819D01*
X173061904Y-159231390D02*
X173109523Y-159183771D01*
X173109523Y-159183771D02*
X173204761Y-159136152D01*
X173204761Y-159136152D02*
X173347618Y-159136152D01*
X173347618Y-159136152D02*
X173442856Y-159183771D01*
X173442856Y-159183771D02*
X173490475Y-159279009D01*
X173490475Y-159279009D02*
X173490475Y-159802819D01*
X174538094Y-159707580D02*
X174490475Y-159755200D01*
X174490475Y-159755200D02*
X174347618Y-159802819D01*
X174347618Y-159802819D02*
X174252380Y-159802819D01*
X174252380Y-159802819D02*
X174109523Y-159755200D01*
X174109523Y-159755200D02*
X174014285Y-159659961D01*
X174014285Y-159659961D02*
X173966666Y-159564723D01*
X173966666Y-159564723D02*
X173919047Y-159374247D01*
X173919047Y-159374247D02*
X173919047Y-159231390D01*
X173919047Y-159231390D02*
X173966666Y-159040914D01*
X173966666Y-159040914D02*
X174014285Y-158945676D01*
X174014285Y-158945676D02*
X174109523Y-158850438D01*
X174109523Y-158850438D02*
X174252380Y-158802819D01*
X174252380Y-158802819D02*
X174347618Y-158802819D01*
X174347618Y-158802819D02*
X174490475Y-158850438D01*
X174490475Y-158850438D02*
X174538094Y-158898057D01*
X175109523Y-159802819D02*
X175014285Y-159755200D01*
X175014285Y-159755200D02*
X174966666Y-159707580D01*
X174966666Y-159707580D02*
X174919047Y-159612342D01*
X174919047Y-159612342D02*
X174919047Y-159326628D01*
X174919047Y-159326628D02*
X174966666Y-159231390D01*
X174966666Y-159231390D02*
X175014285Y-159183771D01*
X175014285Y-159183771D02*
X175109523Y-159136152D01*
X175109523Y-159136152D02*
X175252380Y-159136152D01*
X175252380Y-159136152D02*
X175347618Y-159183771D01*
X175347618Y-159183771D02*
X175395237Y-159231390D01*
X175395237Y-159231390D02*
X175442856Y-159326628D01*
X175442856Y-159326628D02*
X175442856Y-159612342D01*
X175442856Y-159612342D02*
X175395237Y-159707580D01*
X175395237Y-159707580D02*
X175347618Y-159755200D01*
X175347618Y-159755200D02*
X175252380Y-159802819D01*
X175252380Y-159802819D02*
X175109523Y-159802819D01*
X175871428Y-159136152D02*
X175871428Y-159802819D01*
X175871428Y-159231390D02*
X175919047Y-159183771D01*
X175919047Y-159183771D02*
X176014285Y-159136152D01*
X176014285Y-159136152D02*
X176157142Y-159136152D01*
X176157142Y-159136152D02*
X176252380Y-159183771D01*
X176252380Y-159183771D02*
X176299999Y-159279009D01*
X176299999Y-159279009D02*
X176299999Y-159802819D01*
X176680952Y-159136152D02*
X176919047Y-159802819D01*
X176919047Y-159802819D02*
X177157142Y-159136152D01*
X178061904Y-159802819D02*
X177490476Y-159802819D01*
X177776190Y-159802819D02*
X177776190Y-158802819D01*
X177776190Y-158802819D02*
X177680952Y-158945676D01*
X177680952Y-158945676D02*
X177585714Y-159040914D01*
X177585714Y-159040914D02*
X177490476Y-159088533D01*
X211375714Y-158665104D02*
X211851904Y-158665104D01*
X211280476Y-158950819D02*
X211613809Y-157950819D01*
X211613809Y-157950819D02*
X211947142Y-158950819D01*
X212804285Y-158950819D02*
X212232857Y-158950819D01*
X212518571Y-158950819D02*
X212518571Y-157950819D01*
X212518571Y-157950819D02*
X212423333Y-158093676D01*
X212423333Y-158093676D02*
X212328095Y-158188914D01*
X212328095Y-158188914D02*
X212232857Y-158236533D01*
X185880761Y-158599819D02*
X186071237Y-158599819D01*
X186071237Y-158599819D02*
X186166475Y-158647438D01*
X186166475Y-158647438D02*
X186261713Y-158742676D01*
X186261713Y-158742676D02*
X186309332Y-158933152D01*
X186309332Y-158933152D02*
X186309332Y-159266485D01*
X186309332Y-159266485D02*
X186261713Y-159456961D01*
X186261713Y-159456961D02*
X186166475Y-159552200D01*
X186166475Y-159552200D02*
X186071237Y-159599819D01*
X186071237Y-159599819D02*
X185880761Y-159599819D01*
X185880761Y-159599819D02*
X185785523Y-159552200D01*
X185785523Y-159552200D02*
X185690285Y-159456961D01*
X185690285Y-159456961D02*
X185642666Y-159266485D01*
X185642666Y-159266485D02*
X185642666Y-158933152D01*
X185642666Y-158933152D02*
X185690285Y-158742676D01*
X185690285Y-158742676D02*
X185785523Y-158647438D01*
X185785523Y-158647438D02*
X185880761Y-158599819D01*
X187166475Y-158933152D02*
X187166475Y-159599819D01*
X186737904Y-158933152D02*
X186737904Y-159456961D01*
X186737904Y-159456961D02*
X186785523Y-159552200D01*
X186785523Y-159552200D02*
X186880761Y-159599819D01*
X186880761Y-159599819D02*
X187023618Y-159599819D01*
X187023618Y-159599819D02*
X187118856Y-159552200D01*
X187118856Y-159552200D02*
X187166475Y-159504580D01*
X187499809Y-158933152D02*
X187880761Y-158933152D01*
X187642666Y-158599819D02*
X187642666Y-159456961D01*
X187642666Y-159456961D02*
X187690285Y-159552200D01*
X187690285Y-159552200D02*
X187785523Y-159599819D01*
X187785523Y-159599819D02*
X187880761Y-159599819D01*
X188785523Y-159504580D02*
X188737904Y-159552200D01*
X188737904Y-159552200D02*
X188595047Y-159599819D01*
X188595047Y-159599819D02*
X188499809Y-159599819D01*
X188499809Y-159599819D02*
X188356952Y-159552200D01*
X188356952Y-159552200D02*
X188261714Y-159456961D01*
X188261714Y-159456961D02*
X188214095Y-159361723D01*
X188214095Y-159361723D02*
X188166476Y-159171247D01*
X188166476Y-159171247D02*
X188166476Y-159028390D01*
X188166476Y-159028390D02*
X188214095Y-158837914D01*
X188214095Y-158837914D02*
X188261714Y-158742676D01*
X188261714Y-158742676D02*
X188356952Y-158647438D01*
X188356952Y-158647438D02*
X188499809Y-158599819D01*
X188499809Y-158599819D02*
X188595047Y-158599819D01*
X188595047Y-158599819D02*
X188737904Y-158647438D01*
X188737904Y-158647438D02*
X188785523Y-158695057D01*
X189356952Y-159599819D02*
X189261714Y-159552200D01*
X189261714Y-159552200D02*
X189214095Y-159504580D01*
X189214095Y-159504580D02*
X189166476Y-159409342D01*
X189166476Y-159409342D02*
X189166476Y-159123628D01*
X189166476Y-159123628D02*
X189214095Y-159028390D01*
X189214095Y-159028390D02*
X189261714Y-158980771D01*
X189261714Y-158980771D02*
X189356952Y-158933152D01*
X189356952Y-158933152D02*
X189499809Y-158933152D01*
X189499809Y-158933152D02*
X189595047Y-158980771D01*
X189595047Y-158980771D02*
X189642666Y-159028390D01*
X189642666Y-159028390D02*
X189690285Y-159123628D01*
X189690285Y-159123628D02*
X189690285Y-159409342D01*
X189690285Y-159409342D02*
X189642666Y-159504580D01*
X189642666Y-159504580D02*
X189595047Y-159552200D01*
X189595047Y-159552200D02*
X189499809Y-159599819D01*
X189499809Y-159599819D02*
X189356952Y-159599819D01*
X190118857Y-158933152D02*
X190118857Y-159599819D01*
X190118857Y-159028390D02*
X190166476Y-158980771D01*
X190166476Y-158980771D02*
X190261714Y-158933152D01*
X190261714Y-158933152D02*
X190404571Y-158933152D01*
X190404571Y-158933152D02*
X190499809Y-158980771D01*
X190499809Y-158980771D02*
X190547428Y-159076009D01*
X190547428Y-159076009D02*
X190547428Y-159599819D01*
X190928381Y-158933152D02*
X191166476Y-159599819D01*
X191166476Y-159599819D02*
X191404571Y-158933152D01*
X192309333Y-159599819D02*
X191737905Y-159599819D01*
X192023619Y-159599819D02*
X192023619Y-158599819D01*
X192023619Y-158599819D02*
X191928381Y-158742676D01*
X191928381Y-158742676D02*
X191833143Y-158837914D01*
X191833143Y-158837914D02*
X191737905Y-158885533D01*
X193722666Y-111509009D02*
X193389333Y-111509009D01*
X193389333Y-112032819D02*
X193389333Y-111032819D01*
X193389333Y-111032819D02*
X193865523Y-111032819D01*
X194770285Y-112032819D02*
X194198857Y-112032819D01*
X194484571Y-112032819D02*
X194484571Y-111032819D01*
X194484571Y-111032819D02*
X194389333Y-111175676D01*
X194389333Y-111175676D02*
X194294095Y-111270914D01*
X194294095Y-111270914D02*
X194198857Y-111318533D01*
X179145819Y-132484475D02*
X180145819Y-131817809D01*
X179145819Y-131817809D02*
X180145819Y-132484475D01*
X180241057Y-131674952D02*
X180241057Y-130913047D01*
X180145819Y-130246380D02*
X179622009Y-130246380D01*
X179622009Y-130246380D02*
X179526771Y-130293999D01*
X179526771Y-130293999D02*
X179479152Y-130389237D01*
X179479152Y-130389237D02*
X179479152Y-130579713D01*
X179479152Y-130579713D02*
X179526771Y-130674951D01*
X180098200Y-130246380D02*
X180145819Y-130341618D01*
X180145819Y-130341618D02*
X180145819Y-130579713D01*
X180145819Y-130579713D02*
X180098200Y-130674951D01*
X180098200Y-130674951D02*
X180002961Y-130722570D01*
X180002961Y-130722570D02*
X179907723Y-130722570D01*
X179907723Y-130722570D02*
X179812485Y-130674951D01*
X179812485Y-130674951D02*
X179764866Y-130579713D01*
X179764866Y-130579713D02*
X179764866Y-130341618D01*
X179764866Y-130341618D02*
X179717247Y-130246380D01*
X180098200Y-129817808D02*
X180145819Y-129722570D01*
X180145819Y-129722570D02*
X180145819Y-129532094D01*
X180145819Y-129532094D02*
X180098200Y-129436856D01*
X180098200Y-129436856D02*
X180002961Y-129389237D01*
X180002961Y-129389237D02*
X179955342Y-129389237D01*
X179955342Y-129389237D02*
X179860104Y-129436856D01*
X179860104Y-129436856D02*
X179812485Y-129532094D01*
X179812485Y-129532094D02*
X179812485Y-129674951D01*
X179812485Y-129674951D02*
X179764866Y-129770189D01*
X179764866Y-129770189D02*
X179669628Y-129817808D01*
X179669628Y-129817808D02*
X179622009Y-129817808D01*
X179622009Y-129817808D02*
X179526771Y-129770189D01*
X179526771Y-129770189D02*
X179479152Y-129674951D01*
X179479152Y-129674951D02*
X179479152Y-129532094D01*
X179479152Y-129532094D02*
X179526771Y-129436856D01*
X180145819Y-128960665D02*
X179479152Y-128960665D01*
X179145819Y-128960665D02*
X179193438Y-129008284D01*
X179193438Y-129008284D02*
X179241057Y-128960665D01*
X179241057Y-128960665D02*
X179193438Y-128913046D01*
X179193438Y-128913046D02*
X179145819Y-128960665D01*
X179145819Y-128960665D02*
X179241057Y-128960665D01*
X180098200Y-128532094D02*
X180145819Y-128436856D01*
X180145819Y-128436856D02*
X180145819Y-128246380D01*
X180145819Y-128246380D02*
X180098200Y-128151142D01*
X180098200Y-128151142D02*
X180002961Y-128103523D01*
X180002961Y-128103523D02*
X179955342Y-128103523D01*
X179955342Y-128103523D02*
X179860104Y-128151142D01*
X179860104Y-128151142D02*
X179812485Y-128246380D01*
X179812485Y-128246380D02*
X179812485Y-128389237D01*
X179812485Y-128389237D02*
X179764866Y-128484475D01*
X179764866Y-128484475D02*
X179669628Y-128532094D01*
X179669628Y-128532094D02*
X179622009Y-128532094D01*
X179622009Y-128532094D02*
X179526771Y-128484475D01*
X179526771Y-128484475D02*
X179479152Y-128389237D01*
X179479152Y-128389237D02*
X179479152Y-128246380D01*
X179479152Y-128246380D02*
X179526771Y-128151142D01*
X180145819Y-127151142D02*
X180145819Y-127722570D01*
X180145819Y-127436856D02*
X179145819Y-127436856D01*
X179145819Y-127436856D02*
X179288676Y-127532094D01*
X179288676Y-127532094D02*
X179383914Y-127627332D01*
X179383914Y-127627332D02*
X179431533Y-127722570D01*
X267334819Y-92368666D02*
X266858628Y-92701999D01*
X267334819Y-92940094D02*
X266334819Y-92940094D01*
X266334819Y-92940094D02*
X266334819Y-92559142D01*
X266334819Y-92559142D02*
X266382438Y-92463904D01*
X266382438Y-92463904D02*
X266430057Y-92416285D01*
X266430057Y-92416285D02*
X266525295Y-92368666D01*
X266525295Y-92368666D02*
X266668152Y-92368666D01*
X266668152Y-92368666D02*
X266763390Y-92416285D01*
X266763390Y-92416285D02*
X266811009Y-92463904D01*
X266811009Y-92463904D02*
X266858628Y-92559142D01*
X266858628Y-92559142D02*
X266858628Y-92940094D01*
X266334819Y-92035332D02*
X266334819Y-91416285D01*
X266334819Y-91416285D02*
X266715771Y-91749618D01*
X266715771Y-91749618D02*
X266715771Y-91606761D01*
X266715771Y-91606761D02*
X266763390Y-91511523D01*
X266763390Y-91511523D02*
X266811009Y-91463904D01*
X266811009Y-91463904D02*
X266906247Y-91416285D01*
X266906247Y-91416285D02*
X267144342Y-91416285D01*
X267144342Y-91416285D02*
X267239580Y-91463904D01*
X267239580Y-91463904D02*
X267287200Y-91511523D01*
X267287200Y-91511523D02*
X267334819Y-91606761D01*
X267334819Y-91606761D02*
X267334819Y-91892475D01*
X267334819Y-91892475D02*
X267287200Y-91987713D01*
X267287200Y-91987713D02*
X267239580Y-92035332D01*
X180653819Y-99408856D02*
X179653819Y-99408856D01*
X179653819Y-99408856D02*
X179653819Y-99027904D01*
X179653819Y-99027904D02*
X179701438Y-98932666D01*
X179701438Y-98932666D02*
X179749057Y-98885047D01*
X179749057Y-98885047D02*
X179844295Y-98837428D01*
X179844295Y-98837428D02*
X179987152Y-98837428D01*
X179987152Y-98837428D02*
X180082390Y-98885047D01*
X180082390Y-98885047D02*
X180130009Y-98932666D01*
X180130009Y-98932666D02*
X180177628Y-99027904D01*
X180177628Y-99027904D02*
X180177628Y-99408856D01*
X180653819Y-98265999D02*
X180606200Y-98361237D01*
X180606200Y-98361237D02*
X180558580Y-98408856D01*
X180558580Y-98408856D02*
X180463342Y-98456475D01*
X180463342Y-98456475D02*
X180177628Y-98456475D01*
X180177628Y-98456475D02*
X180082390Y-98408856D01*
X180082390Y-98408856D02*
X180034771Y-98361237D01*
X180034771Y-98361237D02*
X179987152Y-98265999D01*
X179987152Y-98265999D02*
X179987152Y-98123142D01*
X179987152Y-98123142D02*
X180034771Y-98027904D01*
X180034771Y-98027904D02*
X180082390Y-97980285D01*
X180082390Y-97980285D02*
X180177628Y-97932666D01*
X180177628Y-97932666D02*
X180463342Y-97932666D01*
X180463342Y-97932666D02*
X180558580Y-97980285D01*
X180558580Y-97980285D02*
X180606200Y-98027904D01*
X180606200Y-98027904D02*
X180653819Y-98123142D01*
X180653819Y-98123142D02*
X180653819Y-98265999D01*
X179987152Y-97599332D02*
X180653819Y-97408856D01*
X180653819Y-97408856D02*
X180177628Y-97218380D01*
X180177628Y-97218380D02*
X180653819Y-97027904D01*
X180653819Y-97027904D02*
X179987152Y-96837428D01*
X180606200Y-96075523D02*
X180653819Y-96170761D01*
X180653819Y-96170761D02*
X180653819Y-96361237D01*
X180653819Y-96361237D02*
X180606200Y-96456475D01*
X180606200Y-96456475D02*
X180510961Y-96504094D01*
X180510961Y-96504094D02*
X180130009Y-96504094D01*
X180130009Y-96504094D02*
X180034771Y-96456475D01*
X180034771Y-96456475D02*
X179987152Y-96361237D01*
X179987152Y-96361237D02*
X179987152Y-96170761D01*
X179987152Y-96170761D02*
X180034771Y-96075523D01*
X180034771Y-96075523D02*
X180130009Y-96027904D01*
X180130009Y-96027904D02*
X180225247Y-96027904D01*
X180225247Y-96027904D02*
X180320485Y-96504094D01*
X180653819Y-95599332D02*
X179987152Y-95599332D01*
X180177628Y-95599332D02*
X180082390Y-95551713D01*
X180082390Y-95551713D02*
X180034771Y-95504094D01*
X180034771Y-95504094D02*
X179987152Y-95408856D01*
X179987152Y-95408856D02*
X179987152Y-95313618D01*
X180653819Y-94980284D02*
X179653819Y-94980284D01*
X179987152Y-94504094D02*
X180653819Y-94504094D01*
X180082390Y-94504094D02*
X180034771Y-94456475D01*
X180034771Y-94456475D02*
X179987152Y-94361237D01*
X179987152Y-94361237D02*
X179987152Y-94218380D01*
X179987152Y-94218380D02*
X180034771Y-94123142D01*
X180034771Y-94123142D02*
X180130009Y-94075523D01*
X180130009Y-94075523D02*
X180653819Y-94075523D01*
X180653819Y-93075523D02*
X180653819Y-93646951D01*
X180653819Y-93361237D02*
X179653819Y-93361237D01*
X179653819Y-93361237D02*
X179796676Y-93456475D01*
X179796676Y-93456475D02*
X179891914Y-93551713D01*
X179891914Y-93551713D02*
X179939533Y-93646951D01*
X189761905Y-123714819D02*
X189761905Y-122714819D01*
X189761905Y-122714819D02*
X190000000Y-122714819D01*
X190000000Y-122714819D02*
X190142857Y-122762438D01*
X190142857Y-122762438D02*
X190238095Y-122857676D01*
X190238095Y-122857676D02*
X190285714Y-122952914D01*
X190285714Y-122952914D02*
X190333333Y-123143390D01*
X190333333Y-123143390D02*
X190333333Y-123286247D01*
X190333333Y-123286247D02*
X190285714Y-123476723D01*
X190285714Y-123476723D02*
X190238095Y-123571961D01*
X190238095Y-123571961D02*
X190142857Y-123667200D01*
X190142857Y-123667200D02*
X190000000Y-123714819D01*
X190000000Y-123714819D02*
X189761905Y-123714819D01*
X191285714Y-123714819D02*
X190714286Y-123714819D01*
X191000000Y-123714819D02*
X191000000Y-122714819D01*
X191000000Y-122714819D02*
X190904762Y-122857676D01*
X190904762Y-122857676D02*
X190809524Y-122952914D01*
X190809524Y-122952914D02*
X190714286Y-123000533D01*
X185158095Y-124084819D02*
X185158095Y-123084819D01*
X185729523Y-124084819D02*
X185300952Y-123513390D01*
X185729523Y-123084819D02*
X185158095Y-123656247D01*
D11*
%TO.C,Z_Axis1*%
X274416000Y-154132000D02*
X275156000Y-154132000D01*
X275156000Y-154132000D02*
X275156000Y-153632000D01*
X264995000Y-153892000D02*
X274916000Y-153892000D01*
X264995000Y-153892000D02*
X264995000Y-103772000D01*
X267955000Y-153892000D02*
X267955000Y-103772000D01*
X272856000Y-153892000D02*
X272856000Y-103772000D01*
X274356000Y-153892000D02*
X274356000Y-103772000D01*
X274916000Y-153892000D02*
X274916000Y-103772000D01*
X271279000Y-147559000D02*
X271325000Y-147606000D01*
X271495000Y-147366000D02*
X271530000Y-147401000D01*
X268981000Y-145262000D02*
X269017000Y-145297000D01*
X269187000Y-145057000D02*
X269233000Y-145104000D01*
X271279000Y-142559000D02*
X271325000Y-142606000D01*
X271495000Y-142366000D02*
X271530000Y-142401000D01*
X268981000Y-140262000D02*
X269017000Y-140297000D01*
X269187000Y-140057000D02*
X269233000Y-140104000D01*
X271279000Y-137559000D02*
X271325000Y-137606000D01*
X271495000Y-137366000D02*
X271530000Y-137401000D01*
X268981000Y-135262000D02*
X269017000Y-135297000D01*
X269187000Y-135057000D02*
X269233000Y-135104000D01*
X271279000Y-132559000D02*
X271325000Y-132606000D01*
X271495000Y-132366000D02*
X271530000Y-132401000D01*
X268981000Y-130262000D02*
X269017000Y-130297000D01*
X269187000Y-130057000D02*
X269233000Y-130104000D01*
X271279000Y-127559000D02*
X271325000Y-127606000D01*
X271495000Y-127366000D02*
X271530000Y-127401000D01*
X268981000Y-125262000D02*
X269017000Y-125297000D01*
X269187000Y-125057000D02*
X269233000Y-125104000D01*
X271279000Y-122559000D02*
X271325000Y-122606000D01*
X271495000Y-122366000D02*
X271530000Y-122401000D01*
X268981000Y-120262000D02*
X269017000Y-120297000D01*
X269187000Y-120057000D02*
X269233000Y-120104000D01*
X271279000Y-117559000D02*
X271325000Y-117606000D01*
X271495000Y-117366000D02*
X271530000Y-117401000D01*
X268981000Y-115262000D02*
X269017000Y-115297000D01*
X269187000Y-115057000D02*
X269233000Y-115104000D01*
X271279000Y-112559000D02*
X271325000Y-112606000D01*
X271495000Y-112366000D02*
X271530000Y-112401000D01*
X268981000Y-110262000D02*
X269017000Y-110297000D01*
X269187000Y-110057000D02*
X269233000Y-110104000D01*
X271279000Y-107559000D02*
X271325000Y-107606000D01*
X271495000Y-107366000D02*
X271530000Y-107401000D01*
X268981000Y-105262000D02*
X269017000Y-105297000D01*
X269187000Y-105057000D02*
X269233000Y-105104000D01*
X264995000Y-103772000D02*
X274916000Y-103772000D01*
X269572001Y-152866999D02*
G75*
G03*
X270939042Y-152867426I684000J1534992D01*
G01*
X268721001Y-150648001D02*
G75*
G03*
X268720574Y-152015042I1534992J-684000D01*
G01*
X271790999Y-152016000D02*
G75*
G03*
X271936252Y-151303195I-1535000J683999D01*
G01*
X271935999Y-151332000D02*
G75*
G03*
X271790755Y-150648682I-1679999J0D01*
G01*
X270940000Y-149797000D02*
G75*
G03*
X269572958Y-149796574I-684000J-1535000D01*
G01*
X271936000Y-146332000D02*
G75*
G03*
X271936000Y-146332000I-1680000J0D01*
G01*
X271936000Y-141332000D02*
G75*
G03*
X271936000Y-141332000I-1680000J0D01*
G01*
X271936000Y-136332000D02*
G75*
G03*
X271936000Y-136332000I-1680000J0D01*
G01*
X271936000Y-131332000D02*
G75*
G03*
X271936000Y-131332000I-1680000J0D01*
G01*
X271936000Y-126332000D02*
G75*
G03*
X271936000Y-126332000I-1680000J0D01*
G01*
X271936000Y-121332000D02*
G75*
G03*
X271936000Y-121332000I-1680000J0D01*
G01*
X271936000Y-116332000D02*
G75*
G03*
X271936000Y-116332000I-1680000J0D01*
G01*
X271936000Y-111332000D02*
G75*
G03*
X271936000Y-111332000I-1680000J0D01*
G01*
X271936000Y-106332000D02*
G75*
G03*
X271936000Y-106332000I-1680000J0D01*
G01*
%TO.C,R4*%
X220750000Y-140970000D02*
X221440000Y-140970000D01*
X221440000Y-139250000D02*
X221440000Y-142690000D01*
X221440000Y-142690000D02*
X230680000Y-142690000D01*
X230680000Y-139250000D02*
X221440000Y-139250000D01*
X230680000Y-142690000D02*
X230680000Y-139250000D01*
X231370000Y-140970000D02*
X230680000Y-140970000D01*
%TO.C,R1*%
X194588000Y-140462000D02*
X195278000Y-140462000D01*
X195278000Y-138742000D02*
X195278000Y-142182000D01*
X195278000Y-142182000D02*
X204518000Y-142182000D01*
X204518000Y-138742000D02*
X195278000Y-138742000D01*
X204518000Y-142182000D02*
X204518000Y-138742000D01*
X205208000Y-140462000D02*
X204518000Y-140462000D01*
%TO.C,Y_Axis1*%
X259942000Y-83978000D02*
X259942000Y-83238000D01*
X259942000Y-83238000D02*
X259442000Y-83238000D01*
X259702000Y-93399000D02*
X259702000Y-83478000D01*
X259702000Y-93399000D02*
X209582000Y-93399000D01*
X259702000Y-90439000D02*
X209582000Y-90439000D01*
X259702000Y-85538000D02*
X209582000Y-85538000D01*
X259702000Y-84038000D02*
X209582000Y-84038000D01*
X259702000Y-83478000D02*
X209582000Y-83478000D01*
X253369000Y-87115000D02*
X253416000Y-87069000D01*
X253176000Y-86899000D02*
X253211000Y-86864000D01*
X251072000Y-89413000D02*
X251107000Y-89377000D01*
X250867000Y-89207000D02*
X250914000Y-89161000D01*
X248369000Y-87115000D02*
X248416000Y-87069000D01*
X248176000Y-86899000D02*
X248211000Y-86864000D01*
X246072000Y-89413000D02*
X246107000Y-89377000D01*
X245867000Y-89207000D02*
X245914000Y-89161000D01*
X243369000Y-87115000D02*
X243416000Y-87069000D01*
X243176000Y-86899000D02*
X243211000Y-86864000D01*
X241072000Y-89413000D02*
X241107000Y-89377000D01*
X240867000Y-89207000D02*
X240914000Y-89161000D01*
X238369000Y-87115000D02*
X238416000Y-87069000D01*
X238176000Y-86899000D02*
X238211000Y-86864000D01*
X236072000Y-89413000D02*
X236107000Y-89377000D01*
X235867000Y-89207000D02*
X235914000Y-89161000D01*
X233369000Y-87115000D02*
X233416000Y-87069000D01*
X233176000Y-86899000D02*
X233211000Y-86864000D01*
X231072000Y-89413000D02*
X231107000Y-89377000D01*
X230867000Y-89207000D02*
X230914000Y-89161000D01*
X228369000Y-87115000D02*
X228416000Y-87069000D01*
X228176000Y-86899000D02*
X228211000Y-86864000D01*
X226072000Y-89413000D02*
X226107000Y-89377000D01*
X225867000Y-89207000D02*
X225914000Y-89161000D01*
X223369000Y-87115000D02*
X223416000Y-87069000D01*
X223176000Y-86899000D02*
X223211000Y-86864000D01*
X221072000Y-89413000D02*
X221107000Y-89377000D01*
X220867000Y-89207000D02*
X220914000Y-89161000D01*
X218369000Y-87115000D02*
X218416000Y-87069000D01*
X218176000Y-86899000D02*
X218211000Y-86864000D01*
X216072000Y-89413000D02*
X216107000Y-89377000D01*
X215867000Y-89207000D02*
X215914000Y-89161000D01*
X213369000Y-87115000D02*
X213416000Y-87069000D01*
X213176000Y-86899000D02*
X213211000Y-86864000D01*
X211072000Y-89413000D02*
X211107000Y-89377000D01*
X210867000Y-89207000D02*
X210914000Y-89161000D01*
X209582000Y-93399000D02*
X209582000Y-83478000D01*
X258676999Y-88821999D02*
G75*
G03*
X258677426Y-87454958I-1534992J684000D01*
G01*
X256458001Y-89672999D02*
G75*
G03*
X257825042Y-89673426I684000J1534992D01*
G01*
X257826000Y-86603001D02*
G75*
G03*
X257113195Y-86457748I-683999J-1535000D01*
G01*
X257142000Y-86458001D02*
G75*
G03*
X256458682Y-86603245I0J-1679999D01*
G01*
X255607000Y-87454000D02*
G75*
G03*
X255606574Y-88821042I1535000J-684000D01*
G01*
X253822000Y-88138000D02*
G75*
G03*
X253822000Y-88138000I-1680000J0D01*
G01*
X248822000Y-88138000D02*
G75*
G03*
X248822000Y-88138000I-1680000J0D01*
G01*
X243822000Y-88138000D02*
G75*
G03*
X243822000Y-88138000I-1680000J0D01*
G01*
X238822000Y-88138000D02*
G75*
G03*
X238822000Y-88138000I-1680000J0D01*
G01*
X233822000Y-88138000D02*
G75*
G03*
X233822000Y-88138000I-1680000J0D01*
G01*
X228822000Y-88138000D02*
G75*
G03*
X228822000Y-88138000I-1680000J0D01*
G01*
X223822000Y-88138000D02*
G75*
G03*
X223822000Y-88138000I-1680000J0D01*
G01*
X218822000Y-88138000D02*
G75*
G03*
X218822000Y-88138000I-1680000J0D01*
G01*
X213822000Y-88138000D02*
G75*
G03*
X213822000Y-88138000I-1680000J0D01*
G01*
%TO.C,R2*%
X213638000Y-98044000D02*
X214328000Y-98044000D01*
X214328000Y-96324000D02*
X214328000Y-99764000D01*
X214328000Y-99764000D02*
X223568000Y-99764000D01*
X223568000Y-96324000D02*
X214328000Y-96324000D01*
X223568000Y-99764000D02*
X223568000Y-96324000D01*
X224258000Y-98044000D02*
X223568000Y-98044000D01*
%TO.C,gripper1*%
X203020000Y-168752000D02*
X203020000Y-169492000D01*
X203020000Y-169492000D02*
X203520000Y-169492000D01*
X203260000Y-159331000D02*
X203260000Y-169252000D01*
X203260000Y-159331000D02*
X253380000Y-159331000D01*
X203260000Y-162291000D02*
X253380000Y-162291000D01*
X203260000Y-167192000D02*
X253380000Y-167192000D01*
X203260000Y-168692000D02*
X253380000Y-168692000D01*
X203260000Y-169252000D02*
X253380000Y-169252000D01*
X209593000Y-165615000D02*
X209546000Y-165661000D01*
X209786000Y-165831000D02*
X209751000Y-165866000D01*
X211890000Y-163317000D02*
X211855000Y-163353000D01*
X212095000Y-163523000D02*
X212048000Y-163569000D01*
X214593000Y-165615000D02*
X214546000Y-165661000D01*
X214786000Y-165831000D02*
X214751000Y-165866000D01*
X216890000Y-163317000D02*
X216855000Y-163353000D01*
X217095000Y-163523000D02*
X217048000Y-163569000D01*
X219593000Y-165615000D02*
X219546000Y-165661000D01*
X219786000Y-165831000D02*
X219751000Y-165866000D01*
X221890000Y-163317000D02*
X221855000Y-163353000D01*
X222095000Y-163523000D02*
X222048000Y-163569000D01*
X224593000Y-165615000D02*
X224546000Y-165661000D01*
X224786000Y-165831000D02*
X224751000Y-165866000D01*
X226890000Y-163317000D02*
X226855000Y-163353000D01*
X227095000Y-163523000D02*
X227048000Y-163569000D01*
X229593000Y-165615000D02*
X229546000Y-165661000D01*
X229786000Y-165831000D02*
X229751000Y-165866000D01*
X231890000Y-163317000D02*
X231855000Y-163353000D01*
X232095000Y-163523000D02*
X232048000Y-163569000D01*
X234593000Y-165615000D02*
X234546000Y-165661000D01*
X234786000Y-165831000D02*
X234751000Y-165866000D01*
X236890000Y-163317000D02*
X236855000Y-163353000D01*
X237095000Y-163523000D02*
X237048000Y-163569000D01*
X239593000Y-165615000D02*
X239546000Y-165661000D01*
X239786000Y-165831000D02*
X239751000Y-165866000D01*
X241890000Y-163317000D02*
X241855000Y-163353000D01*
X242095000Y-163523000D02*
X242048000Y-163569000D01*
X244593000Y-165615000D02*
X244546000Y-165661000D01*
X244786000Y-165831000D02*
X244751000Y-165866000D01*
X246890000Y-163317000D02*
X246855000Y-163353000D01*
X247095000Y-163523000D02*
X247048000Y-163569000D01*
X249593000Y-165615000D02*
X249546000Y-165661000D01*
X249786000Y-165831000D02*
X249751000Y-165866000D01*
X251890000Y-163317000D02*
X251855000Y-163353000D01*
X252095000Y-163523000D02*
X252048000Y-163569000D01*
X253380000Y-159331000D02*
X253380000Y-169252000D01*
X204285001Y-163908001D02*
G75*
G03*
X204284574Y-165275042I1534992J-684000D01*
G01*
X206503999Y-163057001D02*
G75*
G03*
X205136958Y-163056574I-684000J-1534992D01*
G01*
X205136000Y-166126999D02*
G75*
G03*
X205848805Y-166272252I683999J1535000D01*
G01*
X205820000Y-166271999D02*
G75*
G03*
X206503318Y-166126755I0J1679999D01*
G01*
X207355000Y-165276000D02*
G75*
G03*
X207355426Y-163908958I-1535000J684000D01*
G01*
X212500000Y-164592000D02*
G75*
G03*
X212500000Y-164592000I-1680000J0D01*
G01*
X217500000Y-164592000D02*
G75*
G03*
X217500000Y-164592000I-1680000J0D01*
G01*
X222500000Y-164592000D02*
G75*
G03*
X222500000Y-164592000I-1680000J0D01*
G01*
X227500000Y-164592000D02*
G75*
G03*
X227500000Y-164592000I-1680000J0D01*
G01*
X232500000Y-164592000D02*
G75*
G03*
X232500000Y-164592000I-1680000J0D01*
G01*
X237500000Y-164592000D02*
G75*
G03*
X237500000Y-164592000I-1680000J0D01*
G01*
X242500000Y-164592000D02*
G75*
G03*
X242500000Y-164592000I-1680000J0D01*
G01*
X247500000Y-164592000D02*
G75*
G03*
X247500000Y-164592000I-1680000J0D01*
G01*
X252500000Y-164592000D02*
G75*
G03*
X252500000Y-164592000I-1680000J0D01*
G01*
%TO.C,InConv1*%
X170000000Y-169768000D02*
X170000000Y-170508000D01*
X170000000Y-170508000D02*
X170500000Y-170508000D01*
X170240000Y-160347000D02*
X170240000Y-170268000D01*
X170240000Y-160347000D02*
X180360000Y-160347000D01*
X170240000Y-163307000D02*
X180360000Y-163307000D01*
X170240000Y-168208000D02*
X180360000Y-168208000D01*
X170240000Y-169708000D02*
X180360000Y-169708000D01*
X170240000Y-170268000D02*
X180360000Y-170268000D01*
X176573000Y-166631000D02*
X176526000Y-166677000D01*
X176766000Y-166847000D02*
X176731000Y-166882000D01*
X178870000Y-164333000D02*
X178835000Y-164369000D01*
X179075000Y-164539000D02*
X179028000Y-164585000D01*
X180360000Y-160347000D02*
X180360000Y-170268000D01*
X171265001Y-164924001D02*
G75*
G03*
X171264574Y-166291042I1534992J-684000D01*
G01*
X173483999Y-164073001D02*
G75*
G03*
X172116958Y-164072574I-684000J-1534992D01*
G01*
X172116000Y-167142999D02*
G75*
G03*
X172828805Y-167288252I683999J1535000D01*
G01*
X172800000Y-167287999D02*
G75*
G03*
X173483318Y-167142755I0J1679999D01*
G01*
X174335000Y-166292000D02*
G75*
G03*
X174335426Y-164924958I-1535000J684000D01*
G01*
X179480000Y-165608000D02*
G75*
G03*
X179480000Y-165608000I-1680000J0D01*
G01*
%TO.C,A1*%
X176400000Y-113540000D02*
X182750000Y-113540000D01*
X176400000Y-125220000D02*
X176400000Y-113540000D01*
X180850000Y-145290000D02*
X182750000Y-145290000D01*
X180850000Y-154430000D02*
X180850000Y-145290000D01*
X182750000Y-104010000D02*
X247400000Y-104010000D01*
X182750000Y-113540000D02*
X182750000Y-104010000D01*
X182750000Y-125220000D02*
X176400000Y-125220000D01*
X182750000Y-145290000D02*
X182750000Y-125220000D01*
X182750000Y-154430000D02*
X180850000Y-154430000D01*
X182750000Y-157610000D02*
X182750000Y-154430000D01*
X247400000Y-104010000D02*
X249050000Y-105660000D01*
X249050000Y-105660000D02*
X249050000Y-117090000D01*
X249050000Y-117090000D02*
X251590000Y-119630000D01*
X249050000Y-154940000D02*
X249050000Y-157610000D01*
X249050000Y-157610000D02*
X182750000Y-157610000D01*
X251590000Y-119630000D02*
X251590000Y-152400000D01*
X251590000Y-152400000D02*
X249050000Y-154940000D01*
%TO.C,OutConv1*%
X183676000Y-169565000D02*
X183676000Y-170305000D01*
X183676000Y-170305000D02*
X184176000Y-170305000D01*
X183916000Y-160144000D02*
X183916000Y-170065000D01*
X183916000Y-160144000D02*
X194036000Y-160144000D01*
X183916000Y-163104000D02*
X194036000Y-163104000D01*
X183916000Y-168005000D02*
X194036000Y-168005000D01*
X183916000Y-169505000D02*
X194036000Y-169505000D01*
X183916000Y-170065000D02*
X194036000Y-170065000D01*
X190249000Y-166428000D02*
X190202000Y-166474000D01*
X190442000Y-166644000D02*
X190407000Y-166679000D01*
X192546000Y-164130000D02*
X192511000Y-164166000D01*
X192751000Y-164336000D02*
X192704000Y-164382000D01*
X194036000Y-160144000D02*
X194036000Y-170065000D01*
X184941001Y-164721001D02*
G75*
G03*
X184940574Y-166088042I1534992J-684000D01*
G01*
X187159999Y-163870001D02*
G75*
G03*
X185792958Y-163869574I-684000J-1534992D01*
G01*
X185792000Y-166939999D02*
G75*
G03*
X186504805Y-167085252I683999J1535000D01*
G01*
X186476000Y-167084999D02*
G75*
G03*
X187159318Y-166939755I0J1679999D01*
G01*
X188011000Y-166089000D02*
G75*
G03*
X188011426Y-164721958I-1535000J684000D01*
G01*
X193156000Y-165405000D02*
G75*
G03*
X193156000Y-165405000I-1680000J0D01*
G01*
%TO.C,F1*%
X183086000Y-118618000D02*
X183086000Y-113538000D01*
X183856000Y-113538000D02*
X183086000Y-113538000D01*
X183856000Y-118618000D02*
X183086000Y-118618000D01*
X188086000Y-113538000D02*
X186456000Y-113538000D01*
X188086000Y-113538000D02*
X188086000Y-118618000D01*
X188086000Y-118618000D02*
X186456000Y-118618000D01*
X200026000Y-113538000D02*
X200026000Y-118618000D01*
X200026000Y-113578000D02*
X188086000Y-113578000D01*
X200026000Y-118578000D02*
X188086000Y-118578000D01*
X201656000Y-113538000D02*
X200026000Y-113538000D01*
X201656000Y-118618000D02*
X200026000Y-118618000D01*
X204256000Y-113538000D02*
X205026000Y-113538000D01*
X204256000Y-118618000D02*
X205026000Y-118618000D01*
X205026000Y-113538000D02*
X205026000Y-118618000D01*
%TO.C,X_asis1*%
X169271000Y-104494000D02*
X168531000Y-104494000D01*
X168531000Y-104494000D02*
X168531000Y-104994000D01*
X178692000Y-104734000D02*
X168771000Y-104734000D01*
X178692000Y-104734000D02*
X178692000Y-154854000D01*
X175732000Y-104734000D02*
X175732000Y-154854000D01*
X170831000Y-104734000D02*
X170831000Y-154854000D01*
X169331000Y-104734000D02*
X169331000Y-154854000D01*
X168771000Y-104734000D02*
X168771000Y-154854000D01*
X172408000Y-111067000D02*
X172362000Y-111020000D01*
X172192000Y-111260000D02*
X172157000Y-111225000D01*
X174706000Y-113364000D02*
X174670000Y-113329000D01*
X174500000Y-113569000D02*
X174454000Y-113522000D01*
X172408000Y-116067000D02*
X172362000Y-116020000D01*
X172192000Y-116260000D02*
X172157000Y-116225000D01*
X174706000Y-118364000D02*
X174670000Y-118329000D01*
X174500000Y-118569000D02*
X174454000Y-118522000D01*
X172408000Y-121067000D02*
X172362000Y-121020000D01*
X172192000Y-121260000D02*
X172157000Y-121225000D01*
X174706000Y-123364000D02*
X174670000Y-123329000D01*
X174500000Y-123569000D02*
X174454000Y-123522000D01*
X172408000Y-126067000D02*
X172362000Y-126020000D01*
X172192000Y-126260000D02*
X172157000Y-126225000D01*
X174706000Y-128364000D02*
X174670000Y-128329000D01*
X174500000Y-128569000D02*
X174454000Y-128522000D01*
X172408000Y-131067000D02*
X172362000Y-131020000D01*
X172192000Y-131260000D02*
X172157000Y-131225000D01*
X174706000Y-133364000D02*
X174670000Y-133329000D01*
X174500000Y-133569000D02*
X174454000Y-133522000D01*
X172408000Y-136067000D02*
X172362000Y-136020000D01*
X172192000Y-136260000D02*
X172157000Y-136225000D01*
X174706000Y-138364000D02*
X174670000Y-138329000D01*
X174500000Y-138569000D02*
X174454000Y-138522000D01*
X172408000Y-141067000D02*
X172362000Y-141020000D01*
X172192000Y-141260000D02*
X172157000Y-141225000D01*
X174706000Y-143364000D02*
X174670000Y-143329000D01*
X174500000Y-143569000D02*
X174454000Y-143522000D01*
X172408000Y-146067000D02*
X172362000Y-146020000D01*
X172192000Y-146260000D02*
X172157000Y-146225000D01*
X174706000Y-148364000D02*
X174670000Y-148329000D01*
X174500000Y-148569000D02*
X174454000Y-148522000D01*
X172408000Y-151067000D02*
X172362000Y-151020000D01*
X172192000Y-151260000D02*
X172157000Y-151225000D01*
X174706000Y-153364000D02*
X174670000Y-153329000D01*
X174500000Y-153569000D02*
X174454000Y-153522000D01*
X178692000Y-154854000D02*
X168771000Y-154854000D01*
X174114999Y-105759001D02*
G75*
G03*
X172747958Y-105758574I-684000J-1534992D01*
G01*
X174965999Y-107977999D02*
G75*
G03*
X174966426Y-106610958I-1534992J684000D01*
G01*
X171896001Y-106610000D02*
G75*
G03*
X171750748Y-107322805I1535000J-683999D01*
G01*
X171751001Y-107294000D02*
G75*
G03*
X171896245Y-107977318I1679999J0D01*
G01*
X172747000Y-108829000D02*
G75*
G03*
X174114042Y-108829426I684000J1535000D01*
G01*
X175111000Y-112294000D02*
G75*
G03*
X175111000Y-112294000I-1680000J0D01*
G01*
X175111000Y-117294000D02*
G75*
G03*
X175111000Y-117294000I-1680000J0D01*
G01*
X175111000Y-122294000D02*
G75*
G03*
X175111000Y-122294000I-1680000J0D01*
G01*
X175111000Y-127294000D02*
G75*
G03*
X175111000Y-127294000I-1680000J0D01*
G01*
X175111000Y-132294000D02*
G75*
G03*
X175111000Y-132294000I-1680000J0D01*
G01*
X175111000Y-137294000D02*
G75*
G03*
X175111000Y-137294000I-1680000J0D01*
G01*
X175111000Y-142294000D02*
G75*
G03*
X175111000Y-142294000I-1680000J0D01*
G01*
X175111000Y-147294000D02*
G75*
G03*
X175111000Y-147294000I-1680000J0D01*
G01*
X175111000Y-152294000D02*
G75*
G03*
X175111000Y-152294000I-1680000J0D01*
G01*
%TO.C,R3*%
X264160000Y-86892000D02*
X264160000Y-87582000D01*
X265880000Y-87582000D02*
X262440000Y-87582000D01*
X262440000Y-87582000D02*
X262440000Y-96822000D01*
X265880000Y-96822000D02*
X265880000Y-87582000D01*
X262440000Y-96822000D02*
X265880000Y-96822000D01*
X264160000Y-97512000D02*
X264160000Y-96822000D01*
%TO.C,PowerIn1*%
X169779000Y-90966000D02*
X169039000Y-90966000D01*
X169039000Y-90966000D02*
X169039000Y-91466000D01*
X179200000Y-91206000D02*
X169279000Y-91206000D01*
X179200000Y-91206000D02*
X179200000Y-101326000D01*
X176240000Y-91206000D02*
X176240000Y-101326000D01*
X171339000Y-91206000D02*
X171339000Y-101326000D01*
X169839000Y-91206000D02*
X169839000Y-101326000D01*
X169279000Y-91206000D02*
X169279000Y-101326000D01*
X172916000Y-97539000D02*
X172870000Y-97492000D01*
X172700000Y-97732000D02*
X172665000Y-97697000D01*
X175214000Y-99836000D02*
X175178000Y-99801000D01*
X175008000Y-100041000D02*
X174962000Y-99994000D01*
X179200000Y-101326000D02*
X169279000Y-101326000D01*
X174622999Y-92231001D02*
G75*
G03*
X173255958Y-92230574I-684000J-1534992D01*
G01*
X175473999Y-94449999D02*
G75*
G03*
X175474426Y-93082958I-1534992J684000D01*
G01*
X172404001Y-93082000D02*
G75*
G03*
X172258748Y-93794805I1535000J-683999D01*
G01*
X172259001Y-93766000D02*
G75*
G03*
X172404245Y-94449318I1679999J0D01*
G01*
X173255000Y-95301000D02*
G75*
G03*
X174622042Y-95301426I684000J1535000D01*
G01*
X175619000Y-98766000D02*
G75*
G03*
X175619000Y-98766000I-1680000J0D01*
G01*
%TO.C,D1*%
X186760000Y-125730000D02*
X187780000Y-125730000D01*
X187780000Y-124260000D02*
X187780000Y-127200000D01*
X187780000Y-127200000D02*
X193220000Y-127200000D01*
X188560000Y-124260000D02*
X188560000Y-127200000D01*
X188680000Y-124260000D02*
X188680000Y-127200000D01*
X188800000Y-124260000D02*
X188800000Y-127200000D01*
X193220000Y-124260000D02*
X187780000Y-124260000D01*
X193220000Y-127200000D02*
X193220000Y-124260000D01*
X194240000Y-125730000D02*
X193220000Y-125730000D01*
%TD*%
M02*
