M48
; DRILL file {KiCad 7.0.8} date Tue Nov  7 11:25:04 2023
; FORMAT={-:-/ absolute / inch / decimal}
; #@! TF.CreationDate,2023-11-07T11:25:04+01:00
; #@! TF.GenerationSoftware,Kicad,Pcbnew,7.0.8
; #@! TF.FileFunction,MixedPlating,1,2
FMAT,2
INCH
; #@! TA.AperFunction,Plated,PTH,ComponentDrill
T1C0.0315
; #@! TA.AperFunction,Plated,PTH,ComponentDrill
T2C0.0394
; #@! TA.AperFunction,Plated,PTH,ComponentDrill
T3C0.0433
; #@! TA.AperFunction,Plated,PTH,ComponentDrill
T4C0.0461
; #@! TA.AperFunction,Plated,PTH,ComponentDrill
T5C0.0512
%
G90
G05
T1
X7.62Y-5.53
X8.12Y-5.53
X8.37Y-3.86
X8.65Y-5.55
X8.87Y-3.86
X9.15Y-5.55
X10.4Y-3.38
X10.4Y-3.88
T2
X7.9402Y-4.2
X8.0402Y-4.2
X8.1402Y-4.2
X8.2402Y-4.2
X8.3Y-6.1
X8.3402Y-4.2
X8.4Y-6.1
X8.4402Y-4.2
X8.5Y-6.1
X8.5402Y-4.2
X8.6Y-6.1
X8.6402Y-4.2
X8.7Y-6.1
X8.7402Y-4.2
X8.8Y-6.1
X8.8402Y-4.2
X8.9Y-6.1
X9.0Y-4.2
X9.0Y-6.1
X9.1Y-4.2
X9.2Y-4.2
X9.2Y-6.1
X9.3Y-4.2
X9.3Y-6.1
X9.4Y-4.2
X9.4Y-6.1
X9.5Y-4.2
X9.5Y-6.1
X9.6Y-4.2
X9.6Y-6.1
X9.7Y-4.2
X9.7Y-6.1
T3
X7.3Y-4.95
X7.7Y-4.95
T4
X7.2896Y-4.4716
X7.2896Y-4.6684
X7.9904Y-4.4716
X7.9904Y-4.6684
T5
X6.8031Y-6.52
X6.828Y-4.2242
X6.828Y-4.421
X6.828Y-4.6179
X6.828Y-4.8147
X6.828Y-5.0116
X6.828Y-5.2084
X6.828Y-5.4053
X6.828Y-5.6021
X6.828Y-5.799
X6.828Y-5.9958
X6.848Y-3.6916
X6.848Y-3.8884
X7.0Y-6.52
X7.3416Y-6.512
X7.5384Y-6.512
X8.1031Y-6.48
X8.3Y-6.48
X8.352Y-3.47
X8.4969Y-6.48
X8.5489Y-3.47
X8.6937Y-6.48
X8.7457Y-3.47
X8.8906Y-6.48
X8.9426Y-3.47
X9.0874Y-6.48
X9.1394Y-3.47
X9.2843Y-6.48
X9.3363Y-3.47
X9.4811Y-6.48
X9.5331Y-3.47
X9.678Y-6.48
X9.73Y-3.47
X9.8748Y-6.48
X9.9269Y-3.47
X10.1237Y-3.47
X10.64Y-4.1863
X10.64Y-4.3831
X10.64Y-4.58
X10.64Y-4.7769
X10.64Y-4.9737
X10.64Y-5.1706
X10.64Y-5.3674
X10.64Y-5.5643
X10.64Y-5.7611
X10.64Y-5.958
T0
M30
